<?xml version="1.0" encoding="UTF-8"?>
<svg version="1.1" xmlns="http://www.w3.org/2000/svg" width="17" height="17">
<path d="M0,0 L5,0 L5,1 L6,1 L6,2 L7,2 L7,1 L8,1 L8,0 L9,0 L9,6 L3,6 L3,5 L4,5 L4,4 L5,4 L5,3 L4,3 L4,2 L1,2 L1,3 L-1,3 L-1,4 L-2,4 L-2,6 L-3,6 L-3,9 L-2,9 L-2,11 L-1,11 L-1,12 L1,12 L1,13 L4,13 L4,12 L6,12 L6,11 L7,11 L7,10 L8,10 L8,9 L9,9 L9,12 L8,12 L8,13 L7,13 L7,14 L5,14 L5,15 L0,15 L0,14 L-2,14 L-2,13 L-3,13 L-3,12 L-4,12 L-4,10 L-5,10 L-5,5 L-4,5 L-4,3 L-3,3 L-3,2 L-2,2 L-2,1 L0,1 Z " fill="#FFFFFF" transform="translate(6,1)"/>
</svg>
