<?xml version="1.0" encoding="UTF-8"?>
<svg version="1.1" xmlns="http://www.w3.org/2000/svg" width="256" height="256">
<path d="M0 0 C3.01931092 2.07259314 4.76152387 3.7268098 5.45099831 7.40781593 C5.61750811 10.53808056 5.61780916 13.63244002 5.56762695 16.7668457 C5.56835709 17.95751144 5.56908722 19.14817719 5.56983948 20.37492371 C5.56695714 23.63115402 5.54192044 26.88630361 5.50696969 30.14231896 C5.47566795 33.54821573 5.47277249 36.95413479 5.46684265 40.3601532 C5.45131525 46.80589677 5.41030233 53.25121524 5.3600952 59.6967718 C5.30416689 67.03647028 5.27670657 74.37618929 5.25161803 81.71604788 C5.19938503 96.81093526 5.11146482 111.90542507 5 127 C5.90709717 126.9685791 5.90709717 126.9685791 6.83251953 126.93652344 C9.59650771 126.85291055 12.36022913 126.80119946 15.125 126.75 C16.07632813 126.71648437 17.02765625 126.68296875 18.0078125 126.6484375 C23.88915345 126.56675221 27.37758249 126.97356607 32 131 C34.3515625 133.63671875 34.3515625 133.63671875 36.625 136.6875 C37.03959473 137.23986328 37.45418945 137.79222656 37.88134766 138.36132812 C41.99387608 143.88521189 45.95417879 149.52333852 49.88916016 155.17456055 C51.96417071 158.15121675 54.02146348 161.02567061 56.3515625 163.8125 C58 166 58 166 58 169 C18.07 169 -21.86 169 -63 169 C-63.495 168.01 -63.495 168.01 -64 167 C-63.54109375 166.34773437 -63.0821875 165.69546875 -62.609375 165.0234375 C-59.97260484 161.26770186 -57.34143199 157.51702558 -54.8125 153.6875 C-53 151 -53 151 -50.8125 148.3125 C-48.8297297 146.04974976 -48.8297297 146.04974976 -48 143 C-47.34 143 -46.68 143 -46 143 C-45.72542969 142.43410156 -45.45085937 141.86820313 -45.16796875 141.28515625 C-43.96733468 138.93608959 -42.69886397 136.68227015 -41.3125 134.4375 C-40.85488281 133.67308594 -40.39726563 132.90867188 -39.92578125 132.12109375 C-38 130 -38 130 -31 127 C-24.4 127 -17.8 127 -11 127 C-11 111.82 -11 96.64 -11 81 C-12.65 80.34 -14.3 79.68 -16 79 C-23.81427603 75.74539431 -31.3343855 71.87457412 -38.88720703 68.06445312 C-42.25408 66.36817786 -45.62731597 64.68468182 -49 63 C-49.65726074 62.67104736 -50.31452148 62.34209473 -50.99169922 62.00317383 C-54.35987032 60.31744085 -57.7304113 58.63675092 -61.10546875 56.96484375 C-64.43679422 55.31365814 -67.75869765 53.64464304 -71.07617188 51.96582031 C-72.9969639 51.00152422 -74.92765962 50.05936737 -76.859375 49.1171875 C-78.05261091 48.51667216 -79.24534524 47.91515881 -80.4375 47.3125 C-81.48808594 46.79300781 -82.53867188 46.27351563 -83.62109375 45.73828125 C-86 44 -86 44 -86.84765625 41.29296875 C-86.89792969 40.53628906 -86.94820312 39.77960938 -87 39 C-80.03705031 34.35803354 -72.62449606 30.72981715 -65.12890625 27.04833984 C-62.40646269 25.70772371 -59.69235785 24.35083995 -56.97924805 22.99145508 C-55.66365447 22.3324412 -54.34741356 21.67471798 -53.03051758 21.01831055 C-49.5248541 19.27045046 -46.028761 17.50594742 -42.54296875 15.71875 C-41.81400391 15.3475 -41.08503906 14.97625 -40.33398438 14.59375 C-38.93304226 13.87989414 -37.53447676 13.16134924 -36.13867188 12.4375 C-33.22705149 10.95933857 -31.31318891 10 -28 10 C-28 9.34 -28 8.68 -28 8 C-27.443125 7.75765625 -26.88625 7.5153125 -26.3125 7.265625 C-25.549375 6.93046875 -24.78625 6.5953125 -24 6.25 C-22.75863281 5.70859375 -22.75863281 5.70859375 -21.4921875 5.15625 C-19.2775398 4.12876455 -17.23298188 2.97455379 -15.125 1.75 C-10.39762092 -0.6279001 -5.15021491 -1.23943887 0 0 Z " fill="#000000" transform="translate(131,46)"/>
</svg>
